#!OML:ASF H:\Terrain\Walking\May29\JustinRory\Justin.ASF
:FULLY-SPECIFIED
:DEGREES
159
root 6.96884 17.8226 5.16119 -179.068 -6.46713 -179.974
lowerback 2.79833 0.87773 -5.46722
upperback 1.42119 0.978886 -0.244418
thorax -0.195295 0.441993 2.78417
lowerneck -9.24044 -11.2388 -16.8149
upperneck 18.7795 -15.5132 9.75914
head 9.52938 -7.83352 4.08705
rclavicle -4.87022e-015 6.75868e-015
rhumerus -9.78422 4.46775 -91.112
rradius 57.5988
rwrist -36.1227
rhand -26.3392 22.8295
rfingers 7.12502
rthumb 0.21818 -7.15011
lclavicle -4.87022e-015 6.75868e-015
lhumerus -24.1327 -0.276552 75.6448
lradius 45.9371
lwrist -4.07097
lhand -0.720572 34.6776
lfingers 7.12502
lthumb 24.9 63.0757
rfemur -16.3841 -3.62749 16.2452
rtibia 30.5152
rfoot -11.0417 -2.39123
rtoes 1.19028
lfemur -6.55749 -2.67625 -19.1417
ltibia 25.8142
lfoot -15.9192 -2.00561
ltoes -4.72153
160
root 6.95087 17.8287 5.1963 -179.067 -6.65028 -179.534
lowerback 2.94333 0.921369 -5.03312
upperback 1.39948 1.04234 -0.176198
thorax -0.298679 0.479891 2.60686
lowerneck -9.40542 -11.096 -17.1469
upperneck 19.1906 -15.3316 9.91901
head 9.71934 -7.76331 4.21053
rclavicle -2.51463e-014 -1.11319e-014
rhumerus -10.7928 3.28859 -91.6051
rradius 59.4637
rwrist -35.712
rhand -26.5009 22.5101
rfingers 7.12502
rthumb 0.0619452 -7.46968
lclavicle -2.51463e-014 -1.11319e-014
lhumerus -24.5121 -0.472464 75.3899
lradius 46.5983
lwrist -3.23951
lhand -0.779276 34.4626
lfingers 7.12502
lthumb 24.8438 62.8685
rfemur -16.4229 -3.49591 16.6754
rtibia 30.3594
rfoot -10.9581 -2.85397
rtoes 0.11092
lfemur -6.80314 -2.49296 -18.6808
ltibia 25.8391
lfoot -15.7901 -2.43728
ltoes -4.19816
161
root 6.92782 17.8343 5.23059 -178.905 -6.94589 -179.618
lowerback 3.05335 0.983963 -4.95602
upperback 1.21712 1.11777 -0.309074
thorax -0.550188 0.528501 2.42083
lowerneck -8.76319 -10.9861 -16.9092
upperneck 19.1025 -15.1778 9.2443
head 9.47043 -7.76121 4.00252
rclavicle 8.74653e-015 -7.15625e-015
rhumerus -12.0833 1.97758 -91.9754
rradius 61.5063
rwrist -35.4357
rhand -26.5899 22.165
rfingers 7.12502
rthumb -0.0240194 -7.81478
lclavicle 8.74653e-015 -7.15625e-015
lhumerus -25.0317 -0.792573 75.1766
lradius 47.2005
lwrist -2.82017
lhand -0.44757 34.4095
lfingers 7.12502
lthumb 25.1616 62.7711
rfemur -16.604 -3.55422 16.4866
rtibia 30.2659
rfoot -10.8053 -3.12257
rtoes 0.177959
lfemur -7.16063 -2.32752 -18.8174
ltibia 25.8497
lfoot -15.6168 -2.92371
ltoes -4.00489
162
root 6.90184 17.8399 5.25561 -178.858 -7.47389 -179.78
lowerback 3.15788 0.979101 -4.97572
upperback 1.20265 1.10087 -0.398511
thorax -0.620976 0.520988 2.33872
lowerneck -8.6467 -11.0007 -16.3483
upperneck 19.0948 -15.0304 8.08359
head 9.28379 -7.75276 3.55383
rclavicle -1.09332e-014 -4.37326e-015
rhumerus -13.0243 0.763185 -92.143
rradius 63.2714
rwrist -35.3359
rhand -26.7865 21.778
rfingers 7.12502
rthumb -0.213844 -8.20165
lclavicle -1.09332e-014 -4.37326e-015
lhumerus -25.3823 -0.698439 75.0981
lradius 47.6788
lwrist -2.74785
lhand -0.268494 34.2743
lfingers 7.12502
lthumb 25.3332 62.6118
rfemur -16.5641 -3.8389 16.1819
rtibia 30.2312
rfoot -10.7757 -3.38548
rtoes 0.127679
lfemur -7.26967 -2.48835 -19.067
ltibia 25.7873
lfoot -15.5342 -3.35
ltoes -3.94121
163
root 6.88071 17.8432 5.28068 -178.936 -7.95877 -179.999
lowerback 3.3107 0.993147 -5.15853
upperback 1.36317 1.10125 -0.42397
thorax -0.544239 0.512573 2.41397
lowerneck -9.2141 -11.0493 -16.1838
upperneck 19.5247 -14.892 7.34439
head 9.44623 -7.72461 3.26342
rclavicle 3.25013e-014 1.35174e-014
rhumerus -13.4892 -0.144264 -92.1542
rradius 64.6113
rwrist -35.3673
rhand -27.0912 21.5958
rfingers 7.12502
rthumb -0.508212 -8.3833
lclavicle 3.25013e-014 1.35174e-014
lhumerus -25.5848 -0.322002 75.108
lradius 48.1418
lwrist -2.74574
lhand -0.236061 34.3881
lfingers 7.12502
lthumb 25.3642 62.7212
rfemur -16.395 -3.95551 15.824
rtibia 30.1984
rfoot -10.8351 -3.76538
rtoes -0.155794
lfemur -7.21342 -2.76984 -19.3854
ltibia 25.6708
lfoot -15.4267 -3.5485
ltoes -3.947
164
root 6.85987 17.8476 5.30908 -178.879 -8.22452 -179.895
lowerback 3.22152 1.05697 -5.00971
upperback 1.47149 1.19935 -0.368116
thorax -0.389031 0.555964 2.38671
lowerneck -9.23803 -11.059 -16.5368
upperneck 19.5796 -14.8397 7.34071
head 9.49375 -7.72191 3.31885
rclavicle -5.71506e-015 -7.95139e-015
rhumerus -13.7028 -0.958327 -92.1025
rradius 65.5611
rwrist -35.5004
rhand -27.562 21.6841
rfingers 7.12502
rthumb -0.962844 -8.29347
lclavicle -5.71506e-015 -7.95139e-015
lhumerus -25.7493 -0.160723 75.1537
lradius 48.459
lwrist -2.36683
lhand -0.765304 34.2685
lfingers 7.12502
lthumb 24.8571 62.6726
rfemur -16.4814 -3.85338 15.8342
rtibia 30.1142
rfoot -10.8569 -4.15026
rtoes 0.104527
lfemur -7.41411 -2.8349 -19.3327
ltibia 25.5875
lfoot -15.2453 -3.78105
ltoes -3.14551
165
root 6.83544 17.8553 5.33674 -178.769 -8.44957 -179.604
lowerback 3.07648 1.08008 -4.60736
upperback 1.47353 1.25521 -0.313003
thorax -0.30328 0.585427 2.21858
lowerneck -9.1105 -10.9091 -16.964
upperneck 19.6696 -14.6773 7.68213
head 9.54388 -7.6562 3.5295
rclavicle 3.47873e-015 2.0276e-014
rhumerus -13.9304 -1.56469 -92.1233
rradius 66.3573
rwrist -35.3357
rhand -27.6585 21.8533
rfingers 7.12502
rthumb -1.05605 -8.12383
lclavicle 3.47873e-015 2.0276e-014
lhumerus -25.935 0.0842819 75.0993
lradius 48.5102
lwrist -1.81042
lhand -1.73104 33.5493
lfingers 7.12502
lthumb 23.9313 62.078
rfemur -16.5951 -3.77824 16.0464
rtibia 29.9664
rfoot -10.7783 -4.47198
rtoes 0.269456
lfemur -7.74394 -2.78424 -19.0756
ltibia 25.6068
lfoot -15.1323 -4.17679
ltoes -2.54146
166
root 6.8111 17.8551 5.36836 -178.767 -8.67083 -179.553
lowerback 3.2253 1.08276 -4.47475
upperback 1.4148 1.25384 -0.334103
thorax -0.44372 0.589732 2.11947
lowerneck -9.4157 -10.5503 -17.1053
upperneck 20.2874 -14.239 7.89637
head 9.78521 -7.46168 3.67361
rclavicle 2.64384e-014 -3.97569e-015
rhumerus -14.2748 -1.62011 -92.1476
rradius 67.0867
rwrist -34.6596
rhand -27.042 21.7436
rfingers 7.12502
rthumb -0.460672 -8.23565
lclavicle 2.64384e-014 -3.97569e-015
lhumerus -26.3259 0.425007 74.9073
lradius 48.5747
lwrist -1.40259
lhand -2.27803 32.9857
lfingers 7.12502
lthumb 23.4067 61.5822
rfemur -16.5274 -3.7532 15.984
rtibia 29.7428
rfoot -10.5535 -4.73057
rtoes 0.160695
lfemur -7.92709 -2.95091 -19.1177
ltibia 25.736
lfoot -15.1704 -4.26143
ltoes -3.73934
167
root 6.78679 17.8497 5.40537 -178.764 -8.84946 -179.659
lowerback 3.42834 1.08082 -4.53147
upperback 1.35928 1.23632 -0.35641
thorax -0.613837 0.585154 2.12487
lowerneck -9.7223 -10.1707 -17.2507
upperneck 20.9445 -13.721 7.88014
head 10.0134 -7.2551 3.75383
rclavicle 7.35503e-015 -5.96354e-015
rhumerus -14.5587 -1.41305 -91.991
rradius 67.3659
rwrist -34.5336
rhand -27.0153 21.4148
rfingers 7.12502
rthumb -0.434885 -8.56455
lclavicle 7.35503e-015 -5.96354e-015
lhumerus -26.9056 0.683059 74.7402
lradius 48.7513
lwrist -0.989953
lhand -2.65311 32.4395
lfingers 7.12502
lthumb 23.0468 61.0815
rfemur -16.4768 -3.91882 15.7686
rtibia 29.4855
rfoot -10.2857 -4.84925
rtoes -0.747357
lfemur -8.10937 -3.12906 -19.3302
ltibia 25.8922
lfoot -15.1918 -4.28258
ltoes -4.4911
168
root 6.76658 17.8506 5.44019 -178.651 -8.96933 -179.755
lowerback 3.33471 1.11651 -4.62225
upperback 1.4154 1.28659 -0.341971
thorax -0.509492 0.606318 2.19069
lowerneck -10.2559 -9.95146 -17.3342
upperneck 21.6849 -13.3223 7.56976
head 10.3078 -7.11845 3.6912
rclavicle 2.73329e-015 -1.39149e-014
rhumerus -14.3388 -1.34587 -91.656
rradius 66.9453
rwrist -35.123
rhand -27.7466 21.2314
rfingers 7.12502
rthumb -1.14117 -8.74532
lclavicle 2.73329e-015 -1.39149e-014
lhumerus -27.2756 1.08159 74.6762
lradius 48.8801
lwrist -0.723159
lhand -3.40136 32.093
lfingers 7.12502
lthumb 22.3287 60.8228
rfemur -16.55 -4.03414 15.5938
rtibia 29.1961
rfoot -10.0206 -4.98842
rtoes -1.62005
lfemur -8.45413 -3.02346 -19.4906
ltibia 26.0616
lfoot -15.2256 -4.551
ltoes -4.41356
